<?xml version="1.0" standalone="no"?>
<!DOCTYPE svg PUBLIC "-//W3C//DTD SVG 20010904//EN"
 "http://www.w3.org/TR/2001/REC-SVG-20010904/DTD/svg10.dtd">
<svg version="1.0" xmlns="http://www.w3.org/2000/svg"
 width="390" height="512" viewBox="60 0 390 512">

<g transform="translate(0.000000,512.000000) scale(0.100000,-0.100000)"
fill="#0d2e44" stroke="none">
<path d="M2517 4825 c-93 -32 -97 -47 -97 -329 l0 -235 -37 -6 c-308 -53 -546
-176 -750 -388 -161 -168 -261 -352 -325 -601 -19 -73 -21 -123 -28 -521 -7
-428 -8 -443 -33 -536 -46 -176 -114 -298 -243 -441 -86 -95 -129 -174 -145
-271 -31 -183 75 -378 248 -460 l68 -32 1385 0 1385 0 68 33 c89 44 166 121
208 209 29 59 34 81 37 165 7 152 -18 212 -153 365 -125 143 -192 267 -237
438 -19 73 -22 121 -28 515 -8 463 -10 485 -66 660 -113 359 -421 671 -792
804 -57 20 -248 66 -276 66 -3 0 -6 107 -6 238 0 217 -2 240 -20 269 -33 55
-102 80 -163 58z"/>
<path d="M1960 705 c0 -3 16 -38 36 -78 75 -148 241 -279 409 -322 76 -19 234
-19 310 0 168 43 334 174 409 322 20 40 36 75 36 78 0 3 -270 5 -600 5 -330 0
-600 -2 -600 -5z"/>
</g>
</svg>
