<?xml version="1.0" standalone="no"?>
<!DOCTYPE svg PUBLIC "-//W3C//DTD SVG 20010904//EN"
 "http://www.w3.org/TR/2001/REC-SVG-20010904/DTD/svg10.dtd">
<svg version="1.0" xmlns="http://www.w3.org/2000/svg"
 width="512.000000pt" height="512.000000pt" viewBox="0 0 512.000000 512.000000"
 preserveAspectRatio="xMidYMid meet">

<g transform="translate(0.000000,512.000000) scale(0.100000,-0.100000)"
fill="#000000" stroke="none">
<path d="M1236 5019 c-431 -59 -815 -336 -1010 -727 -92 -183 -131 -356 -131
-582 0 -181 14 -267 65 -422 107 -321 356 -605 668 -762 182 -92 356 -131 582
-131 240 0 404 40 610 147 289 149 523 417 633 724 52 146 72 265 72 444 0
181 -14 267 -65 422 -64 191 -167 355 -320 508 -191 192 -410 310 -675 365
-95 20 -332 28 -429 14z m329 -139 c262 -38 488 -151 676 -339 160 -160 261
-339 317 -560 23 -93 26 -126 26 -271 0 -145 -3 -178 -26 -271 -56 -221 -157
-400 -317 -560 -160 -160 -339 -261 -560 -317 -94 -23 -125 -26 -271 -26 -139
0 -180 4 -260 23 -126 31 -264 89 -368 153 -116 72 -282 235 -358 353 -258
398 -258 892 0 1290 76 118 242 281 358 353 236 146 523 209 783 172z"/>
<path d="M1310 4758 c-291 -21 -584 -190 -759 -438 -89 -127 -145 -254 -176
-406 -21 -103 -21 -305 0 -408 87 -420 411 -744 831 -831 103 -21 305 -21 408
0 420 87 744 411 831 831 21 103 21 305 0 408 -87 420 -418 751 -832 830 -99
19 -183 23 -303 14z m327 -163 c321 -81 576 -338 659 -663 35 -137 35 -307 0
-444 -83 -327 -337 -581 -664 -664 -202 -51 -435 -27 -624 65 -173 85 -334
246 -419 419 -114 234 -122 522 -20 762 89 208 272 392 478 479 186 80 393 95
590 46z"/>
<path d="M1365 4515 c-35 -34 -35 -112 -2 -143 53 -50 117 -10 117 72 0 83
-64 123 -115 71z"/>
<path d="M844 4308 c-30 -14 -46 -52 -35 -81 12 -32 77 -87 102 -87 26 0 69
43 69 70 0 24 -66 96 -95 103 -11 3 -30 1 -41 -5z"/>
<path d="M1924 4310 c-29 -12 -84 -77 -84 -101 0 -26 43 -69 69 -69 25 0 90
55 102 87 11 30 -6 67 -38 82 -13 6 -25 11 -26 10 -1 0 -11 -4 -23 -9z"/>
<path d="M1365 4185 c-25 -24 -25 -27 -25 -194 0 -165 -1 -171 -25 -207 -62
-92 0 -203 109 -192 35 4 54 -3 134 -49 98 -56 139 -65 164 -35 47 55 29 86
-93 157 -54 31 -99 63 -99 70 0 7 -11 29 -25 49 -24 36 -25 42 -25 207 0 167
0 170 -25 194 -31 32 -59 32 -90 0z"/>
<path d="M605 3755 c-14 -13 -25 -33 -25 -45 0 -11 11 -32 25 -45 34 -35 112
-35 143 -2 50 53 10 117 -72 117 -36 0 -52 -5 -71 -25z"/>
<path d="M2072 3757 c-50 -53 -10 -117 72 -117 36 0 52 5 71 25 14 13 25 34
25 45 0 12 -11 32 -25 45 -34 35 -112 35 -143 2z"/>
<path d="M854 3248 c-20 -17 -40 -42 -45 -55 -18 -49 35 -102 84 -84 32 12 87
77 87 102 0 26 -43 69 -69 69 -11 0 -37 -14 -57 -32z"/>
<path d="M1865 3255 c-14 -13 -25 -33 -25 -44 0 -25 55 -90 87 -102 49 -18
102 35 84 84 -12 32 -77 87 -102 87 -11 0 -31 -11 -44 -25z"/>
<path d="M1362 3047 c-32 -34 -31 -109 3 -142 13 -14 34 -25 45 -25 12 0 32
11 45 25 35 34 35 112 2 143 -30 28 -68 28 -95 -1z"/>
<path d="M2941 4114 c-27 -34 -26 -47 3 -81 l24 -28 404 -5 c360 -5 407 -7
442 -23 61 -29 130 -101 160 -166 l26 -59 -2 -275 -3 -275 -85 102 c-69 82
-91 102 -116 104 -39 4 -77 -34 -72 -73 4 -32 291 -388 326 -404 18 -9 30 -8
50 1 32 16 320 363 329 396 13 52 -64 103 -104 70 -9 -7 -50 -53 -91 -103 -41
-49 -79 -91 -84 -93 -4 -2 -8 122 -8 275 0 226 -3 290 -16 334 -42 144 -153
259 -299 309 -54 19 -84 20 -461 20 l-403 0 -20 -26z"/>
<path d="M3536 2719 c-494 -68 -920 -419 -1076 -887 -51 -155 -65 -241 -65
-422 0 -181 14 -267 65 -422 128 -382 440 -695 825 -826 155 -53 242 -67 425
-67 179 0 298 20 444 72 366 131 668 433 799 799 52 146 72 265 72 444 0 181
-14 267 -65 422 -64 191 -167 355 -320 508 -191 192 -410 310 -675 365 -95 20
-332 28 -429 14z m329 -139 c262 -38 488 -151 676 -339 160 -160 261 -339 317
-560 23 -93 26 -126 26 -271 0 -145 -3 -178 -26 -271 -56 -221 -157 -400 -317
-560 -160 -160 -339 -261 -560 -317 -94 -23 -125 -26 -271 -26 -139 0 -180 4
-260 23 -126 31 -264 89 -368 153 -116 72 -282 235 -358 353 -308 475 -244
1077 155 1476 262 263 631 389 986 339z"/>
<path d="M3605 2297 c-160 -53 -256 -185 -256 -352 0 -99 28 -170 97 -244 77
-83 151 -115 264 -115 113 0 187 32 264 115 172 186 112 477 -120 581 -60 27
-189 34 -249 15z m188 -140 c85 -36 138 -117 138 -210 0 -88 -35 -151 -111
-195 -91 -54 -226 -28 -288 57 -32 44 -43 79 -43 138 0 92 52 173 136 209 39
17 127 18 168 1z"/>
<path d="M3565 1536 c-288 -67 -497 -280 -551 -562 -26 -137 -15 -206 42 -273
102 -119 350 -191 654 -191 304 0 552 72 654 191 57 67 68 137 42 271 -49 257
-232 464 -481 544 -99 32 -267 41 -360 20z m274 -141 c166 -39 306 -152 379
-305 66 -137 79 -248 36 -300 -157 -186 -931 -186 -1088 0 -42 51 -30 161 35
299 110 236 382 366 638 306z"/>
<path d="M1020 2187 c-31 -16 -319 -364 -327 -395 -13 -52 64 -103 104 -70 9
7 50 54 91 103 41 50 79 91 83 93 4 2 9 -133 11 -300 l3 -304 37 -76 c66 -132
188 -228 326 -257 33 -7 194 -11 428 -11 l375 0 24 25 c30 29 32 55 6 86 l-19
24 -399 5 -398 5 -68 33 c-48 24 -79 48 -107 83 -67 85 -71 109 -68 416 l3
271 85 -102 c69 -82 91 -102 116 -104 39 -4 77 34 72 73 -4 31 -291 387 -326
404 -27 13 -22 13 -52 -2z"/>
</g>
</svg>
