<?xml version="1.0" encoding="UTF-8"?>
<svg xmlns="http://www.w3.org/2000/svg" viewBox="0 0 121.03 59">
<defs>
<style>.userlist-icon{fill:#0d2e44}</style>
</defs>
<circle class="userlist-icon" cx="25.55" cy="22.22" r="12.22"/>
<circle class="userlist-icon" cx="98.99" cy="15.54" r="10.54"/>
<circle class="userlist-icon" cx="63.33" cy="16.5" r="16.5"/>
<path class="userlist-icon" d="m76.31,33.02c-3.43,3.09-7.98,4.98-12.98,4.98s-9.56-1.9-12.98-4.98c-12.62,3.42-21.52,12.18-21.52,25.98h69c0-13.8-8.9-22.56-21.52-25.98Z"/>
<path class="userlist-icon" d="m39.34,35.95c-1.32-.59-2.71-1.1-4.18-1.5-2.54,2.29-5.91,3.69-9.62,3.69s-7.08-1.41-9.62-3.69C6.59,36.99,0,43.47,0,53.69h27.43c1.16-7.9,5.55-13.84,11.92-17.74Z"/>
<path class="userlist-icon" d="m95.01,42.69h26.02c0-8.82-5.69-14.41-13.75-16.6-2.19,1.97-5.1,3.18-8.29,3.18s-6.1-1.21-8.29-3.18c-4.08,1.11-7.55,3.09-9.99,5.93,6.07,2.2,11.06,5.77,14.3,10.67Z"/>
</svg>